<!DOCTYPE svg PUBLIC "-//W3C//DTD SVG 1.1//EN" "http://www.w3.org/Graphics/SVG/1.1/DTD/svg11.dtd">
<!-- Uploaded to: SVG Repo, www.svgrepo.com, Transformed by: SVG Repo Mixer Tools -->
<svg fill="#000000" height="100px" width="100px" version="1.1" id="Layer_1" xmlns="http://www.w3.org/2000/svg" xmlns:xlink="http://www.w3.org/1999/xlink" viewBox="0 0 511.994 511.994" xml:space="preserve" stroke="#000000">
<g id="SVGRepo_bgCarrier" stroke-width="0"/>
<g id="SVGRepo_tracerCarrier" stroke-linecap="round" stroke-linejoin="round"/>
<g id="SVGRepo_iconCarrier"> <g> <g> <g> <path d="M255.997,179.194c-26.274,0-47.437,18.159-51.456,42.667h102.912C303.434,197.352,282.271,179.194,255.997,179.194z"/> <path d="M366.93,85.327h-34.133v-76.8c0-2.927-1.502-5.649-3.977-7.219c-2.475-1.553-5.589-1.732-8.226-0.486l-179.2,85.333 c-1.877,0.896-3.268,2.415-4.079,4.207c-0.128,0.282-0.162,0.597-0.256,0.896c-0.23,0.7-0.401,1.417-0.444,2.167 c-0.009,0.154-0.085,0.282-0.085,0.435v409.6c0,4.719,3.823,8.533,8.533,8.533H366.93c4.71,0,8.533-3.814,8.533-8.533V93.86 C375.463,89.141,371.641,85.327,366.93,85.327z M325.211,230.394c0,4.719-3.814,8.533-8.533,8.533H195.316 c-4.719,0-8.533-3.814-8.533-8.533c0-35.422,26.044-63.684,60.681-67.721v-9.079c0-4.719,3.823-8.533,8.533-8.533 s8.533,3.814,8.533,8.533v9.079C299.167,166.709,325.211,194.972,325.211,230.394z M315.73,22.044v63.283H182.832L315.73,22.044z M315.73,460.794H196.263c-4.71,0-8.533-3.814-8.533-8.533c0-4.719,3.823-8.533,8.533-8.533H315.73 c4.71,0,8.533,3.814,8.533,8.533C324.263,456.979,320.44,460.794,315.73,460.794z M221.863,418.127 c0-4.719,3.823-8.533,8.533-8.533h51.2c4.71,0,8.533,3.814,8.533,8.533s-3.823,8.533-8.533,8.533h-51.2 C225.686,426.66,221.863,422.846,221.863,418.127z M324.263,273.06H187.73c-4.71,0-8.533-3.814-8.533-8.533 s3.823-8.533,8.533-8.533h136.533c4.71,0,8.533,3.814,8.533,8.533S328.974,273.06,324.263,273.06z"/> </g> </g> </g> </g>
</svg>